<?xml version="1.0" standalone="no"?>
<!DOCTYPE svg PUBLIC "-//W3C//DTD SVG 20010904//EN"
 "http://www.w3.org/TR/2001/REC-SVG-20010904/DTD/svg10.dtd">
<svg version="1.0" xmlns="http://www.w3.org/2000/svg"
 width="500.000000pt" height="500.000000pt" viewBox="0 0 500.000000 500.000000"
 preserveAspectRatio="xMidYMid meet">

<g transform="translate(0.000000,500.000000) scale(0.100000,-0.100000)"
fill="#000000" stroke="none">
<path d="M2335 3949 c-421 -39 -825 -277 -1061 -624 -52 -77 -134 -223 -134
-240 0 -3 9 -5 20 -5 14 0 28 17 51 63 195 388 573 669 1014 753 122 23 368
23 490 0 113 -22 257 -68 361 -116 268 -124 514 -362 648 -627 27 -55 41 -73
57 -73 17 0 19 4 13 23 -26 85 -159 280 -268 394 -188 197 -381 319 -625 393
-117 35 -176 47 -310 60 -114 11 -126 11 -256 -1z"/>
<path d="M2316 3790 c-212 -27 -406 -100 -591 -224 -84 -56 -251 -221 -318
-314 -48 -67 -137 -221 -137 -237 0 -3 9 -5 19 -5 14 0 30 21 56 72 108 213
324 430 533 537 507 258 1113 160 1506 -243 78 -81 184 -229 227 -318 15 -31
29 -48 41 -48 23 0 23 0 -11 68 -141 279 -401 515 -696 632 -176 70 -441 104
-629 80z"/>
<path d="M1950 2695 c-14 -7 -37 -16 -52 -20 -16 -3 -28 -12 -28 -20 0 -8 -6
-15 -14 -15 -20 0 -26 -23 -26 -105 0 -41 -4 -77 -10 -80 -14 -9 -12 -99 2
-113 7 -7 20 -12 29 -12 10 0 20 -11 24 -27 3 -16 17 -42 31 -60 30 -39 30
-43 0 -43 -14 0 -33 -11 -45 -26 -11 -14 -40 -35 -63 -47 -64 -33 -78 -68 -78
-202 0 -73 4 -115 12 -123 14 -14 98 -16 98 -3 0 6 -17 11 -37 13 l-38 3 -3
118 -3 118 30 29 c46 47 61 40 61 -25 0 -42 -4 -55 -15 -55 -26 0 -46 -45 -43
-97 3 -44 5 -48 31 -51 15 -2 27 1 27 7 0 6 -7 11 -15 11 -11 0 -15 11 -15 43
0 47 13 67 45 67 32 0 45 -20 45 -67 0 -32 -4 -43 -15 -43 -8 0 -15 -5 -15
-11 0 -6 12 -9 28 -7 25 3 27 7 30 51 3 52 -17 97 -43 97 -12 0 -15 14 -15 60
0 58 14 80 26 43 4 -10 17 -40 29 -68 16 -33 26 -79 30 -137 l7 -88 -51 0
c-28 0 -51 -4 -51 -10 0 -15 463 -13 478 2 8 8 12 50 12 123 0 130 -14 169
-72 200 -21 11 -38 25 -38 31 0 20 -37 44 -68 44 -37 0 -40 10 -12 35 11 10
25 36 32 57 7 25 17 38 28 38 38 0 43 23 32 153 -15 193 -44 227 -192 227 -54
0 -94 -6 -110 -15z m49 -230 c19 -9 57 -15 102 -15 l71 0 -3 -84 c-4 -78 -6
-87 -34 -116 -68 -71 -176 -56 -221 32 -21 41 -19 221 2 243 15 15 18 14 35
-14 10 -16 32 -37 48 -46z m-129 -66 c0 -36 -4 -49 -12 -47 -14 5 -23 61 -14
84 12 31 26 11 26 -37z m355 1 c0 -26 -5 -45 -12 -47 -9 -3 -13 10 -13 47 0
37 4 50 13 48 7 -3 12 -22 12 -48z m-115 -226 c0 -6 -17 -31 -38 -54 l-38 -43
-37 45 c-20 25 -37 49 -37 54 0 5 34 9 75 9 49 0 75 -4 75 -11z m-180 0 c0
-11 -34 -33 -50 -33 -10 0 -8 6 9 19 23 20 41 26 41 14z m266 -8 c10 -8 16
-18 12 -22 -9 -8 -68 15 -68 27 0 14 34 11 56 -5z m-218 -65 l32 -40 -22 -15
c-12 -9 -25 -16 -29 -16 -10 0 -41 89 -34 100 10 17 20 12 53 -29z m167 28 c4
-6 0 -30 -10 -55 l-17 -44 -29 16 -29 15 32 39 c35 42 43 46 53 29z m75 -73
c0 -48 -4 -65 -15 -70 -8 -3 -20 -17 -27 -30 -16 -36 11 -76 52 -76 56 0 79
54 39 96 -16 17 -20 32 -17 80 l3 59 33 -32 33 -32 -3 -118 -3 -118 -103 -3
-103 -3 7 93 c4 51 12 100 19 108 6 8 19 36 29 63 13 34 23 47 37 47 17 0 19
-8 19 -64z m-129 -82 c-9 -28 -9 -29 -10 -3 -1 14 2 29 6 32 11 12 13 2 4 -29z
m-104 -21 c-3 -10 -5 -2 -5 17 0 19 2 27 5 18 2 -10 2 -26 0 -35z m67 -15 c3
-13 9 -44 14 -70 l10 -48 -40 0 -40 0 7 53 c3 28 9 60 11 70 7 24 33 21 38 -5z
m190 5 c11 5 16 1 16 -12 0 -10 -8 -22 -17 -25 -22 -9 -48 17 -39 40 6 15 9
16 16 5 4 -8 15 -11 24 -8z"/>
<path d="M1962 2394 c4 -21 22 -23 26 -1 2 10 -3 17 -13 17 -10 0 -15 -6 -13
-16z"/>
<path d="M2082 2394 c4 -21 22 -23 26 -1 2 10 -3 17 -13 17 -10 0 -15 -6 -13
-16z"/>
<path d="M1997 2333 c-11 -11 14 -33 38 -33 27 0 52 25 35 35 -6 4 -17 2 -25
-5 -9 -7 -15 -8 -20 0 -7 11 -19 13 -28 3z"/>
<path d="M3770 2660 c0 -18 7 -20 60 -20 33 0 60 -4 60 -9 0 -4 -20 -56 -45
-115 -25 -60 -45 -110 -45 -112 0 -2 10 -4 23 -4 19 0 29 18 75 133 28 73 52
136 52 140 0 4 -40 7 -90 7 -83 0 -90 -1 -90 -20z"/>
<path d="M925 2635 c-39 -38 -31 -134 10 -119 9 4 11 18 8 43 -6 44 12 64 54
59 19 -2 30 -11 37 -29 12 -34 -11 -79 -74 -148 -28 -30 -50 -56 -50 -58 0 -2
41 -3 90 -3 83 0 90 1 90 20 0 17 -7 20 -52 20 l-52 0 26 28 c41 43 68 94 68
128 0 74 -102 113 -155 59z"/>
<path d="M1199 2553 l-76 -98 61 -5 61 -5 -1 -33 c0 -28 3 -32 20 -30 16 2 22
12 24 36 2 20 9 32 18 32 8 0 14 7 14 15 0 8 -7 15 -15 15 -12 0 -15 16 -15
85 0 47 -3 85 -8 85 -4 0 -41 -44 -83 -97z m46 -35 c-2 -29 -6 -33 -36 -36
-30 -3 -32 -2 -19 15 49 64 59 67 55 21z"/>
<path d="M3219 2400 c-101 -17 -189 -85 -233 -179 -24 -53 -28 -163 -7 -224
22 -64 83 -132 152 -166 53 -27 73 -31 139 -31 66 0 86 4 138 31 102 50 164
146 165 254 3 130 -54 228 -163 282 -72 35 -123 44 -191 33z m251 -175 l23
-25 -138 -132 c-76 -73 -141 -134 -145 -136 -4 -2 -43 31 -86 72 l-79 75 27
27 28 28 53 -52 52 -52 115 110 c63 60 118 109 121 109 3 1 16 -10 29 -24z"/>
<path d="M1285 1933 c9 -21 37 -73 63 -116 201 -335 532 -559 921 -623 183
-30 433 -10 606 48 98 33 259 113 342 170 106 72 267 235 335 338 61 94 122
209 114 217 -13 13 -37 -10 -62 -59 -167 -335 -506 -590 -885 -668 -141 -29
-419 -25 -544 9 -180 48 -346 128 -484 233 -134 103 -292 295 -362 441 -15 30
-29 47 -41 47 -17 0 -17 -2 -3 -37z"/>
<path d="M1140 1913 c0 -3 20 -43 44 -87 227 -419 609 -691 1071 -762 124 -20
393 -13 505 11 401 89 734 320 947 660 31 50 93 169 93 179 0 3 -9 6 -19 6
-14 0 -32 -24 -67 -90 -95 -180 -280 -385 -449 -498 -178 -119 -405 -207 -603
-233 -110 -15 -383 -6 -476 15 -417 94 -760 352 -963 723 -32 60 -50 83 -64
83 -10 0 -19 -3 -19 -7z"/>
</g>
</svg>
